<?xml version="1.0" standalone="no"?>
<!DOCTYPE svg PUBLIC "-//W3C//DTD SVG 20010904//EN"
 "http://www.w3.org/TR/2001/REC-SVG-20010904/DTD/svg10.dtd">
<svg version="1.0" xmlns="http://www.w3.org/2000/svg"
 width="1024.000000pt" height="1070.000000pt" viewBox="0 0 1024.000000 1070.000000"
 preserveAspectRatio="xMidYMid meet">
<metadata>
Created by potrace 1.15, written by Peter Selinger 2001-2017
</metadata>
<g transform="translate(0.000000,1070.000000) scale(0.100000,-0.100000)"
fill="#000000" stroke="none">
<path d="M0 10280 c0 -380 4 -455 24 -405 3 8 12 15 21 15 25 0 17 -17 -15
-32 -31 -13 -40 -28 -17 -28 6 0 28 14 47 30 21 18 29 30 20 30 -8 0 -21 9
-28 20 -7 11 -8 20 -3 20 5 0 11 -5 13 -11 3 -8 24 -9 73 -4 54 6 64 10 45 16
-14 4 -19 7 -12 8 6 1 12 10 12 21 0 11 6 20 14 20 8 0 18 -9 21 -20 3 -11 10
-20 13 -20 4 0 14 9 22 20 14 20 26 20 5002 20 l4988 0 0 360 0 360 -5120 0
-5120 0 0 -420z m443 216 c104 -43 128 -177 47 -258 -49 -50 -67 -49 -72 2 -3
35 -1 41 24 51 34 14 42 37 33 97 l-6 47 -89 0 -88 0 -7 -53 c-7 -57 6 -85 46
-97 11 -4 16 -12 12 -21 -7 -20 -23 -18 -50 8 -25 23 -31 14 -9 -14 7 -10 23
-18 35 -18 14 0 21 -6 21 -20 0 -31 -28 -24 -70 18 -125 124 11 326 173 258z
m9732 -156 l0 -165 -360 0 -360 0 -3 155 c-1 85 0 160 2 167 4 11 76 13 363
11 l358 -3 0 -165z"/>
<path d="M9464 10487 c-2 -7 -3 -78 -2 -157 l3 -145 350 0 350 0 0 155 0 155
-348 3 c-279 2 -349 0 -353 -11z"/>
<path d="M4203 9028 c-36 -17 -44 -63 -41 -224 l3 -149 -32 -55 c-81 -141
-124 -357 -101 -512 9 -62 8 -76 -17 -154 -14 -48 -24 -97 -21 -110 9 -35 65
-85 131 -115 33 -16 164 -55 290 -87 l230 -59 -1 -40 c-1 -50 -35 -100 -81
-120 -45 -18 -140 -19 -184 0 -35 15 -115 88 -161 149 -44 58 -144 100 -192
82 -26 -10 -19 -23 48 -87 39 -38 75 -86 95 -124 28 -57 31 -71 31 -155 0
-109 11 -132 71 -148 49 -14 122 -1 201 34 31 14 69 26 85 28 l28 3 3 -116 c3
-129 -11 -180 -62 -220 -49 -39 2 -63 84 -39 25 7 49 7 83 -1 43 -10 47 -14
45 -38 -3 -24 0 -26 35 -25 80 3 167 99 167 185 0 27 -5 38 -18 41 -27 7 -58
239 -46 340 13 115 9 186 -13 217 -12 15 -79 56 -168 101 -173 87 -190 104
-191 188 -1 35 -9 74 -22 101 -22 49 -22 49 33 210 30 89 39 101 76 101 25 0
29 4 40 56 l13 57 105 -9 c108 -9 180 -9 468 -3 88 2 165 1 169 -4 4 -4 10
-34 12 -67 2 -34 10 -65 18 -71 15 -12 19 -56 8 -84 -5 -13 -10 -10 -25 14
-52 85 -152 26 -153 -90 0 -117 110 -173 158 -80 l13 24 11 -33 c9 -25 9 -38
-2 -59 -8 -14 -18 -38 -24 -53 -6 -14 -32 -41 -59 -59 -26 -18 -50 -35 -53
-39 -3 -3 -38 -25 -79 -49 -41 -24 -94 -63 -117 -87 -64 -63 -74 -107 -85
-384 -6 -131 -14 -236 -19 -238 -13 -5 -12 -38 1 -85 19 -70 110 -147 174
-147 20 0 25 5 25 25 0 15 6 25 14 25 7 0 19 7 26 15 10 12 8 30 -9 92 -40
153 -64 353 -41 353 6 0 73 -25 149 -55 180 -70 249 -89 295 -81 43 8 51 22
66 109 7 37 15 69 19 72 4 2 104 -11 222 -30 879 -139 1218 -187 1530 -220
134 -14 271 -29 304 -33 l60 -7 -39 -27 c-35 -24 -37 -28 -20 -35 32 -12 531
-9 654 5 254 28 583 92 650 127 60 31 80 91 33 97 -41 4 -67 64 -67 148 1 78
21 123 65 146 38 19 26 38 -23 35 -18 -1 -41 -2 -50 -2 -11 0 -18 -8 -18 -19
0 -10 -4 -21 -9 -24 -4 -3 -7 5 -6 17 3 21 -1 23 -44 24 -38 1 -41 0 -16 -6
24 -5 27 -8 12 -13 -9 -4 -28 -3 -42 2 -19 7 -27 6 -34 -8 -9 -15 -10 -15 -11
3 0 16 -7 20 -35 20 -26 1 -34 -3 -30 -13 4 -12 0 -11 -19 1 -25 17 -62 15
-80 -4 -8 -9 -1 -10 27 -5 27 5 37 4 32 -4 -4 -6 -24 -10 -46 -8 -26 1 -36 5
-29 12 17 17 11 23 -25 22 -32 -1 -39 -7 -36 -28 0 -4 -7 -4 -16 -1 -11 4 -13
8 -5 11 20 6 14 21 -8 19 -23 -1 -23 -2 -10 -28 6 -10 7 -19 3 -20 -43 -4 -61
-3 -57 3 3 4 15 9 27 9 18 1 19 2 4 6 -14 4 -16 8 -6 19 9 11 7 14 -14 12 -14
-1 -24 -5 -21 -9 2 -4 -9 -7 -26 -7 -16 1 -30 5 -30 10 0 4 -7 8 -15 8 -8 0
-15 -5 -15 -11 0 -5 5 -7 12 -3 7 4 8 3 4 -5 -4 -6 -13 -8 -19 -4 -20 13 -41
12 -49 0 -6 -9 -8 -9 -8 1 0 17 -129 10 -140 -8 -6 -9 -9 -9 -12 1 -4 11 -9
12 -26 2 -13 -8 -23 -9 -27 -3 -9 14 -45 12 -45 -2 0 -10 -3 -9 -9 0 -6 10
-20 12 -47 7 -22 -3 -60 -7 -86 -7 -29 0 -46 -5 -45 -12 1 -6 -8 -10 -22 -8
-18 3 -22 0 -18 -12 9 -23 0 -20 -14 5 -8 17 -8 20 1 14 8 -5 11 -3 8 5 -3 9
-29 15 -81 17 -64 3 -77 1 -77 -12 0 -8 7 -15 16 -15 9 0 13 5 9 13 -4 6 0 4
8 -5 17 -21 37 -24 37 -5 0 7 5 5 10 -5 6 -10 18 -14 30 -11 12 3 20 0 20 -7
0 -20 -170 -6 -1272 107 -815 83 -848 85 -873 69 -32 -21 -64 -88 -65 -133 0
-21 -7 -37 -22 -47 -34 -24 -38 -20 -38 32 0 61 -14 110 -41 138 l-21 22 38
11 c22 6 44 11 50 11 27 0 155 74 174 100 23 32 31 90 51 352 6 92 9 198 6
237 -6 77 -53 205 -93 258 -21 28 -26 48 -34 165 -11 139 -31 231 -57 261 -27
29 -87 20 -260 -38 -198 -67 -213 -69 -333 -56 -73 7 -138 6 -277 -6 l-182
-16 -91 47 c-150 78 -268 109 -317 84z m1234 -1446 c-22 -24 -47 -86 -47 -116
0 -33 -14 -40 -48 -22 -35 18 -102 91 -102 111 0 14 8 16 120 34 92 14 96 14
77 -7z m1345 -107 c977 -105 1029 -109 1278 -109 161 0 293 6 462 23 131 13
245 21 253 17 26 -10 45 -71 45 -146 0 -81 -19 -136 -52 -150 -13 -5 -122 -22
-243 -37 -183 -22 -259 -27 -450 -26 -285 0 -468 20 -1300 138 -329 47 -600
85 -601 85 -1 0 7 17 18 38 23 45 21 149 -4 200 -9 17 -15 32 -13 32 2 0 275
-29 607 -65z"/>
<path d="M7070 8305 l0 -185 28 0 c16 0 63 3 105 6 l77 7 0 178 0 179 -105 0
-105 0 0 -185z"/>
<path d="M6331 8404 c-83 -70 -75 -292 14 -350 20 -13 28 -14 51 -2 42 20 64
58 76 129 15 90 -2 171 -47 216 -40 40 -54 41 -94 7z"/>
<path d="M4537 8130 c-81 -95 -5 -272 94 -220 29 16 49 64 49 120 0 113 -83
172 -143 100z"/>
<path d="M2561 7876 c-7 -8 -11 -37 -9 -67 3 -48 6 -55 30 -63 18 -7 35 -6 53
2 22 10 25 18 25 65 0 29 -5 58 -12 65 -17 17 -73 15 -87 -2z"/>
<path d="M7260 7796 l0 -26 -102 0 c-134 0 -651 -27 -782 -40 -116 -12 -216
-27 -224 -34 -11 -11 162 -28 433 -42 126 -6 583 9 770 26 99 9 221 33 234 45
7 8 -21 55 -30 50 -4 -3 -27 4 -52 14 -28 12 -82 22 -146 26 l-101 7 0 -26z"/>
<path d="M1850 7625 c0 -8 5 -15 10 -15 6 0 10 -33 10 -79 0 -44 -4 -83 -10
-86 -23 -14 -7 -25 35 -25 58 0 85 25 85 79 0 45 -20 71 -56 71 -21 0 -24 5
-24 35 0 31 -3 35 -25 35 -16 0 -25 -6 -25 -15z"/>
<path d="M1450 7563 c0 -3 6 -14 14 -22 7 -9 21 -40 31 -68 20 -62 39 -67 56
-15 l13 37 14 -37 c8 -21 20 -38 28 -38 7 0 20 24 29 53 10 28 24 59 31 68 21
24 17 29 -21 29 -36 0 -43 -8 -25 -26 7 -7 6 -21 -2 -45 l-12 -34 -13 34 c-10
24 -11 37 -4 44 19 19 12 27 -24 27 -35 0 -43 -8 -26 -25 5 -6 3 -25 -3 -45
l-13 -34 -11 34 c-8 23 -9 37 -2 44 18 18 11 26 -25 26 -19 0 -35 -3 -35 -7z"/>
<path d="M2060 7561 c0 -6 5 -13 10 -16 6 -3 10 -42 10 -85 0 -43 -4 -82 -10
-85 -20 -12 -9 -25 20 -25 30 0 31 1 24 35 -5 31 -4 35 15 35 52 0 84 95 45
134 -17 18 -114 23 -114 7z"/>
<path d="M2392 7558 c-7 -7 -12 -33 -12 -59 0 -38 5 -51 22 -63 12 -9 31 -16
41 -16 13 0 17 -5 13 -16 -3 -9 -6 -18 -6 -20 0 -2 -11 -4 -25 -4 -16 0 -25
-6 -25 -15 0 -17 32 -20 60 -5 21 11 27 37 33 143 l5 67 -47 0 c-26 0 -52 -5
-59 -12z"/>
<path d="M2916 7554 c-23 -22 -21 -96 2 -117 24 -22 65 -21 85 1 22 24 22 95
1 116 -8 9 -28 16 -44 16 -16 0 -36 -7 -44 -16z"/>
<path d="M2056 7244 c-23 -22 -21 -96 2 -117 24 -22 65 -21 85 1 22 24 22 95
1 116 -8 9 -28 16 -44 16 -16 0 -36 -7 -44 -16z"/>
<path d="M2206 7244 c-23 -22 -21 -96 2 -117 24 -22 65 -21 85 1 22 24 22 95
1 116 -8 9 -28 16 -44 16 -16 0 -36 -7 -44 -16z"/>
<path d="M2786 7244 c-39 -38 -7 -134 45 -134 32 0 20 -34 -14 -38 -33 -4 -37
-32 -4 -32 12 0 33 7 45 16 20 13 22 24 22 94 0 43 5 82 10 85 23 14 7 25 -39
25 -32 0 -55 -6 -65 -16z"/>
<path d="M3101 7246 c-7 -8 -11 -37 -9 -67 3 -48 6 -55 30 -63 18 -7 35 -6 53
2 22 10 25 18 25 65 0 29 -5 58 -12 65 -17 17 -73 15 -87 -2z"/>
<path d="M257 4020 c-46 -36 -49 -139 -4 -180 17 -16 33 -20 72 -18 l50 3 3
58 3 57 -36 0 c-36 0 -50 -22 -20 -34 25 -9 19 -46 -8 -46 -34 0 -47 19 -47
66 0 54 21 77 67 72 29 -4 33 -1 31 16 -4 31 -75 34 -111 6z"/>
<path d="M590 3925 c0 -98 1 -105 20 -105 17 0 20 7 20 45 0 43 1 45 29 45 28
0 30 -3 33 -42 2 -36 7 -44 26 -46 22 -3 22 -2 22 102 l0 106 -25 0 c-22 0
-25 -4 -25 -40 0 -38 -2 -40 -30 -40 -28 0 -30 2 -30 40 0 33 -3 40 -20 40
-19 0 -20 -7 -20 -105z"/>
<path d="M920 3926 l0 -103 55 -2 c63 -1 75 11 75 78 0 49 -22 74 -62 69 -26
-4 -28 -2 -28 29 0 26 -4 33 -20 33 -19 0 -20 -7 -20 -104z"/>
</g>
</svg>
