<svg xmlns="http://www.w3.org/2000/svg" viewBox="0 0 150 150"><defs><style>.cls-1{fill:#fff;}</style></defs><title>easyconfig-logo-01</title><g id="Layer_2" data-name="Layer 2"><path class="cls-1" d="M136.5,118.46c-6.25,16.75-32.34,25.89-52.5,26.5-6,.18-43.41.58-64.59-30.88C4.07,91.31,7.43,67,10.22,55.85a.3.3,0,0,1,0-.1,55.9,55.9,0,0,1,1.82-6C24.22,18.33,54.2,9,58,7.87c21.1-6.19,44-2,60.05,9.84,4.26,3.16,16,11.87,19,26.25a31.51,31.51,0,0,1-.88,17.44,33.26,33.26,0,0,1-6.28,10.22,52.58,52.58,0,0,1-14.43,11.9c-7.86,4.47-14.67,5.79-20.16,6.85a50.86,50.86,0,0,1-12,.93c-5.43-.23-7.86-1.25-8.94-1.76A16.15,16.15,0,0,1,68.38,85c-4.48-5.83-4-15.93,1.5-21.25a15.4,15.4,0,0,1,8.37-4.13c2.08-.27,2.41.21,6-.12a21.3,21.3,0,0,0,7.31-1.75C93.18,57,94.2,56.49,95,55.34a6.17,6.17,0,0,0,.56-5.82c-1.48-3.16-6.12-3.65-10.06-4.06a28.35,28.35,0,0,0-10.12.62c-7.86,2.06-17.94,9-21.33,20.73h0c0,.19-.11.38-.16.58-.33,1.22-4,15.85,5.37,26.06,7.2,7.85,17.82,8.42,21.75,8.62a40.23,40.23,0,0,0,8.81-.56c4.21-.76,6.73-2,9.94-3.18,4.64-1.77,10.14-3.86,15.19-4.13,8.15-.44,18.9,3.67,22.06,11.75C139.09,111.3,137.19,116.62,136.5,118.46Z"/></g></svg>